<svg id="Layer_1" data-name="Layer 1" xmlns="http://www.w3.org/2000/svg" viewBox="0 0 950.72 364.2714"><defs><style>.cls-1{fill:#d3313a;}.cls-2{fill:#3a68bb;}</style></defs><title>A-Ortega</title><polygon class="cls-1" points="285.855 258.691 288.182 258.691 288.182 264.174 279.854 264.174 279.854 258.691 282.156 258.691 282.156 250.078 263.173 250.078 263.173 258.691 265.94 258.691 265.94 277.443 263.224 277.443 263.224 286.055 282.156 286.055 282.156 277.443 279.854 277.443 279.854 271.546 288.182 271.546 288.182 277.443 285.855 277.443 285.855 286.055 304.813 286.055 304.813 277.443 302.097 277.443 302.097 258.691 304.813 258.691 304.813 250.078 285.855 250.078 285.855 258.691"/><path class="cls-1" d="M354.3135,295.9783a4.0229,4.0229,0,0,1-3.8795,2.7932q-4.4751,0-4.552-6.1037h19.76q-.2851-7.3438-4.6813-10.94-4.475-3.6216-11.5867-3.6208-7.3973,0-11.7161,3.8277a12.194,12.194,0,0,0-4.3709,9.5694,11.6765,11.6765,0,0,0,4.4226,9.4926q4.4226,3.6445,13.19,3.646a18.6979,18.6979,0,0,0,8.9746-2.0173,12.448,12.448,0,0,0,3.1553-2.3151,9.9375,9.9375,0,0,0,2.0173-3.0128Zm-7.3711-10.706a3.0052,3.0052,0,0,1,2.69-1.4484,3.3111,3.3111,0,0,1,2.7415,1.3184,5.3948,5.3948,0,0,1,1.0346,3.3874q0,.1048-.0518.8807h-7.3193a4.6781,4.6781,0,0,1-.0259-.5172A6.6461,6.6461,0,0,1,346.9424,285.2723Z" transform="translate(-24.64 -17.8643)"/><path class="cls-1" d="M405.3732,303.919v-7.8876h-3.207V288.79a14.1652,14.1652,0,0,0-.6725-5.0692,7.68,7.68,0,0,0-2.3018-2.95,11.49,11.49,0,0,0-5.0951-1.9908,32.0675,32.0675,0,0,0-3.7627-.5047q-2.1085-.1677-4.7722-.1677-7.2158,0-10.9143,1.5a9.7381,9.7381,0,0,0-5.4313,5.1979l10.19,1.0345a5.5173,5.5173,0,0,1,4.81-2.4046,6.4094,6.4094,0,0,1,3,.6724,3.3239,3.3239,0,0,1,1.6035,1.6819,10.82,10.82,0,0,1,.3362,3.2573v.7508a19.4858,19.4858,0,0,0-7.7331-1.268,15.0818,15.0818,0,0,0-8.6383,2.2508,6.7316,6.7316,0,0,0-3.3364,5.7682,7.05,7.05,0,0,0,2.7156,5.5082q2.69,2.3277,7.9918,2.3277,5.6379,0,9-2.1725v1.7069Zm-20.1475-5.0943a3.4723,3.4723,0,0,1-2.4311-.9842,3.4638,3.4638,0,0,1-.0259-4.9127,3.8467,3.8467,0,0,1,2.7156-.9311,7.6482,7.6482,0,0,1,3.6726.9311v4.5771A5.7368,5.7368,0,0,1,385.2257,298.8247Z" transform="translate(-24.64 -17.8643)"/><path class="cls-1" d="M428.2944,302.4707v-7.7073a7.723,7.723,0,0,1-3.0519.8011,1.7883,1.7883,0,0,1-1.7587-.8011,7.5635,7.5635,0,0,1-.44-3.18v-4.8623h5.25v-7.889h-5.25V268.7967l-13.0093,6.1806v3.8543h-3.207v7.889h3.207v4.2151q0,4.888.1811,6.5944a8.4336,8.4336,0,0,0,.4138,1.7727,9.397,9.397,0,0,0,.8793,1.7447,7.4377,7.4377,0,0,0,3.2329,2.6395,12.0117,12.0117,0,0,0,5.0175.9562,18.9372,18.9372,0,0,0,4.8623-.6724A12.5325,12.5325,0,0,0,428.2944,302.4707Z" transform="translate(-24.64 -17.8643)"/><polygon class="cls-1" points="424.402 278.167 422.23 278.167 422.23 260.967 406.634 260.967 406.634 268.856 409.221 268.856 409.221 278.167 406.634 278.167 406.634 286.055 424.402 286.055 424.402 278.167"/><path class="cls-1" d="M434.8176,275.0556a10.621,10.621,0,0,0,5.1209,1.1128,9.4829,9.4829,0,0,0,5.0175-1.2163,3.6325,3.6325,0,0,0,1.9656-3.2322,3.84,3.84,0,0,0-1.888-3.207,8.855,8.855,0,0,0-5.0434-1.2946,9.7957,9.7957,0,0,0-5.1209,1.2414,3.72,3.72,0,0,0-2.0949,3.2854A3.53,3.53,0,0,0,434.8176,275.0556Z" transform="translate(-24.64 -17.8643)"/><path class="cls-1" d="M488.0247,289.5908q0-5.897-2.4053-8.56-2.4315-2.6653-7.2417-2.6646a16.63,16.63,0,0,0-10.2678,3.646v-3.18H451.8678v7.889h3.2329v9.3108h-3.2329v7.8876h19.863v-7.8876H468.11v-7.889a6.84,6.84,0,0,1,3.7243-1.3183,2.7217,2.7217,0,0,1,2.56,1.138q.6207,1.1617.6207,4.8091V303.919H490.999v-7.8876h-2.9743Z" transform="translate(-24.64 -17.8643)"/><path class="cls-1" d="M497.8583,300.1164a14.2979,14.2979,0,0,0,9.466,3.2071,19.0984,19.0984,0,0,0,8.7159-1.9656,9.8474,9.8474,0,0,1-.5172,3.5957,4.7515,4.7515,0,0,1-2.4563,2.1976,11.79,11.79,0,0,1-5.251.9577,21.4075,21.4075,0,0,1-8.1211-1.268l-3.5691,6.3638a31.6179,31.6179,0,0,0,6.0779,1.4217q2.4565.3628,4.3583.5173,1.9.1552,4.331.1552a35.9332,35.9332,0,0,0,8.7167-.8528,13.3465,13.3465,0,0,0,5.5082-2.6395,9.2015,9.2015,0,0,0,3.0532-4.2415,23.5193,23.5193,0,0,0,.8276-7.0852V286.7206h3.1288v-7.889H516.04v1.6036a16.0589,16.0589,0,0,0-8.25-2.0691,14.4222,14.4222,0,0,0-9.7763,3.4922,11.8048,11.8048,0,0,0-4.0605,9.4394A10.7435,10.7435,0,0,0,497.8583,300.1164Zm10.4229-12.6716a3.8366,3.8366,0,0,1,3.3623-1.6818,3.8809,3.8809,0,0,1,3.2587,1.6035,6.6544,6.6544,0,0,1,1.19,4.113,6.3654,6.3654,0,0,1-1.1129,3.8529,4.3667,4.3667,0,0,1-6.6979.0252,6.1264,6.1264,0,0,1-1.1638-3.8278A6.923,6.923,0,0,1,508.2812,287.4448Z" transform="translate(-24.64 -17.8643)"/><path d="M572.1762,301.1775l2.1977,2.7415h15.1824v-8.6117h-5.483l-2.4311-3.0785a22.8872,22.8872,0,0,0,3.8012-5.1978h4.1129v-9.2856h-9.0256a40.3339,40.3339,0,0,1-4.2681,7.9141l-3.7243-4.6819q-1.9922-2.4556-1.9922-3.5943,0-2.4578,3.44-2.4563.3356,0,.6207.0251v-7.4738q-3.1811-.26-5.5864-.26-6.5952,0-9.4912,2.4325a7.7173,7.7173,0,0,0-2.95,6.2324,11.83,11.83,0,0,0,1.5518,5.7151,16.6305,16.6305,0,0,0-8.0162,4.6051,10.6718,10.6718,0,0,0-3.1567,7.5772,10.0061,10.0061,0,0,0,3.26,7.7073q3.284,3.0007,10.0084,3A20.7342,20.7342,0,0,0,572.1762,301.1775Zm-13.941-8.7166a4.9826,4.9826,0,0,1,3.3105-4.8623l6.4406,8.1994a7.0125,7.0125,0,0,1-4.6819,2.069,4.5676,4.5676,0,0,1-3.6209-1.6552A5.5441,5.5441,0,0,1,558.2352,292.4609Z" transform="translate(-24.64 -17.8643)"/><path class="cls-2" d="M627.3014,295.9531q-6.052,0-6.0506-10.0867,0-10.0614,5.8437-10.0615a5.697,5.697,0,0,1,3.7774,1.398,7.7557,7.7557,0,0,1,2.3529,3.8781h8.9739V267.9425h-8.637v2.406a17.9491,17.9491,0,0,0-23.02,2.3277,19.1846,19.1846,0,0,0-4.8875,13.2671,18.6065,18.6065,0,0,0,4.9909,13.1386q4.9658,5.4061,15.3111,5.4061,7.5786,0,11.8971-3.6977a16.47,16.47,0,0,0,5.4579-9.4408l-9.336-3.284Q632.604,295.9525,627.3014,295.9531Z" transform="translate(-24.64 -17.8643)"/><path class="cls-2" d="M677.1477,281.78q-4.9931-3.6718-12.9582-3.6725-7.9143,0-12.57,3.8012a11.6329,11.6329,0,0,0-4.6554,9.3373,11.7779,11.7779,0,0,0,4.7071,9.5946q4.7079,3.804,13.1386,3.8026,7.8114,0,12.5695-3.8026a11.6844,11.6844,0,0,0,4.7589-9.4911A11.3583,11.3583,0,0,0,677.1477,281.78Zm-12.7248,15.518q-4.2947,0-4.2947-6a6.7014,6.7014,0,0,1,1.2415-4.37,4.0524,4.0524,0,0,1,3.2853-1.5014,3.7665,3.7665,0,0,1,3.207,1.5266,7.1894,7.1894,0,0,1,1.1129,4.2933Q668.9749,297.2981,664.4229,297.298Z" transform="translate(-24.64 -17.8643)"/><path class="cls-2" d="M716.0265,281.78q-4.9931-3.6718-12.9582-3.6725-7.9142,0-12.57,3.8012a11.6329,11.6329,0,0,0-4.6554,9.3373,11.7777,11.7777,0,0,0,4.7072,9.5946q4.7077,3.804,13.1385,3.8026,7.8114,0,12.57-3.8026a11.6843,11.6843,0,0,0,4.7588-9.4911A11.358,11.358,0,0,0,716.0265,281.78Zm-12.7247,15.518q-4.2948,0-4.2947-6a6.702,6.702,0,0,1,1.2414-4.37,4.0526,4.0526,0,0,1,3.2853-1.5014,3.7666,3.7666,0,0,1,3.2071,1.5266,7.19,7.19,0,0,1,1.1128,4.2933Q707.8537,297.2981,703.3018,297.298Z" transform="translate(-24.64 -17.8643)"/><polygon class="cls-2" points="699.565 278.167 699.565 286.055 717.541 286.055 717.541 278.167 715.238 278.167 715.238 250.078 699.565 250.078 699.565 257.967 702.23 257.967 702.23 278.167 699.565 278.167"/><polygon class="cls-2" points="720.313 278.167 720.313 286.055 738.082 286.055 738.082 278.167 735.909 278.167 735.909 260.967 720.313 260.967 720.313 268.856 722.899 268.856 722.899 278.167 720.313 278.167"/><path class="cls-2" d="M746.4529,271.7451a3.53,3.53,0,0,0,2.0426,3.3105,10.6307,10.6307,0,0,0,5.1223,1.1128,9.4779,9.4779,0,0,0,5.0161-1.2163A3.63,3.63,0,0,0,760.6,271.72a3.839,3.839,0,0,0-1.8873-3.207,8.8543,8.8543,0,0,0-5.0441-1.2946,9.79,9.79,0,0,0-5.12,1.2414A3.7183,3.7183,0,0,0,746.4529,271.7451Z" transform="translate(-24.64 -17.8643)"/><path class="cls-2" d="M801.7026,289.5908q0-5.897-2.4046-8.56-2.4325-2.6653-7.2417-2.6646a16.633,16.633,0,0,0-10.2685,3.646v-3.18H765.5457v7.889h3.2336v9.3108h-3.2336v7.8876h19.863v-7.8876h-3.6209v-7.889a6.8437,6.8437,0,0,1,3.7243-1.3183,2.7192,2.7192,0,0,1,2.56,1.138q.6207,1.1617.6207,4.8091V303.919h15.9849v-7.8876h-2.9749Z" transform="translate(-24.64 -17.8643)"/><path class="cls-2" d="M829.7188,280.4352a16.0581,16.0581,0,0,0-8.25-2.0691,14.4258,14.4258,0,0,0-9.7777,3.4922,11.8064,11.8064,0,0,0-4.06,9.4394,10.742,10.742,0,0,0,3.906,8.8187,14.2942,14.2942,0,0,0,9.4646,3.2071,19.1014,19.1014,0,0,0,8.7166-1.9656,9.8474,9.8474,0,0,1-.5172,3.5957,4.7513,4.7513,0,0,1-2.4564,2.1976,11.7888,11.7888,0,0,1-5.2509.9577,21.4071,21.4071,0,0,1-8.1211-1.268l-3.5691,6.3638a31.6285,31.6285,0,0,0,6.0785,1.4217q2.4556.3628,4.3577.5173,1.9.1552,4.3324.1552a35.9285,35.9285,0,0,0,8.7153-.8528,13.3455,13.3455,0,0,0,5.5081-2.6395,9.201,9.201,0,0,0,3.0533-4.2415,23.5193,23.5193,0,0,0,.8276-7.0852V286.7206h3.1288v-7.889h-16.087Zm-1.0611,14.8972a4.3667,4.3667,0,0,1-6.6979.0252,6.1267,6.1267,0,0,1-1.1645-3.8278,6.9233,6.9233,0,0,1,1.1645-4.085,3.8374,3.8374,0,0,1,3.3623-1.6818,3.8809,3.8809,0,0,1,3.2587,1.6035,6.6544,6.6544,0,0,1,1.19,4.113A6.3653,6.3653,0,0,1,828.6577,295.3324Z" transform="translate(-24.64 -17.8643)"/><polygon points="836.076 258.691 839.386 258.691 839.386 277.443 836.076 277.443 836.076 286.055 856.585 286.055 856.585 277.443 853.301 277.443 853.301 258.691 856.585 258.691 856.585 250.078 836.076 250.078 836.076 258.691"/><path d="M920.2334,289.5908q0-5.897-2.4046-8.56-2.4325-2.6653-7.2417-2.6646a16.6327,16.6327,0,0,0-10.2684,3.646v-3.18H884.0765v7.889H887.31v9.3108h-3.2336v7.8876H903.94v-7.8876h-3.6208v-7.889a6.8434,6.8434,0,0,1,3.7243-1.3183,2.7189,2.7189,0,0,1,2.56,1.138q.6209,1.1617.6208,4.8091V303.919h15.9849v-7.8876h-2.975Z" transform="translate(-24.64 -17.8643)"/><path d="M944.3688,297.9439a4.3874,4.3874,0,0,1-3.5692-1.68,6.99,6.99,0,0,1-1.3966-4.6037,7.9049,7.9049,0,0,1,1.2932-4.5785,4.2276,4.2276,0,0,1,3.6726-1.8356q3.5166,0,4.9909,4.2933H957.3V278.8316H949.36v1.6818q-2.9212-2.1472-8.3014-2.1473a15.5234,15.5234,0,0,0-10.5774,3.6726,11.9943,11.9943,0,0,0-4.2416,9.4659,11.5345,11.5345,0,0,0,4.5519,9.57q4.5505,3.5691,12.4647,3.5691a19.9046,19.9046,0,0,0,10.035-2.3277,10.85,10.85,0,0,0,5.2258-6.5175l-9.6994-2.1726Q947.9889,297.9454,944.3688,297.9439Z" transform="translate(-24.64 -17.8643)"/><rect x="937.8135" y="276.6405" width="12.9065" height="9.4142"/><path d="M365.7723,349.45a23.7923,23.7923,0,0,0-1.9327,10.08q0,9.9336,5.6025,15.462a27.2207,27.2207,0,0,0,6.0429,4.5744,25.6179,25.6179,0,0,0,6.8748,2.57V375.75a9.2228,9.2228,0,0,1-4.6729-5.21q-1.3945-3.6447-1.3945-11.6218,0-8.2684,1.8349-11.5951,1.7856-3.3281,4.2325-3.9648V336.949a27.5482,27.5482,0,0,0-10.3,4.8931A20.77,20.77,0,0,0,365.7723,349.45Z" transform="translate(-24.64 -17.8643)"/><path d="M387.9356,349.2292h6.7524v-4.7211h12.11a58.3885,58.3885,0,0,0-11.0827,19.3765h-4.4038v7.78h19.6456v-7.78h-4.4282q1.1985-7.4863,8.6363-19.7442V337.634h-27.23Z" transform="translate(-24.64 -17.8643)"/><path d="M423.4482,349.2292h6.7524v-4.7211h12.11a58.3885,58.3885,0,0,0-11.0827,19.3765h-4.4038v7.78H446.47v-7.78h-4.4282q1.1985-7.4863,8.6363-19.7442V337.634h-27.23Z" transform="translate(-24.64 -17.8643)"/><path d="M481.1809,353.4372a7.2668,7.2668,0,0,0,3.8411-2.6422,6.9693,6.9693,0,0,0,1.419-4.3059,8.4952,8.4952,0,0,0-3.3518-6.8q-3.3521-2.7408-10.08-2.74-6.312,0-9.9573,2.5192a9.3112,9.3112,0,0,0-3.9634,7.608l9.1989.4894q.2685-3.8649,3.7677-3.8642a3.7343,3.7343,0,0,1,2.6422.9283,3.3661,3.3661,0,0,1,.9787,2.5206,3.2554,3.2554,0,0,1-1.4924,2.9121,5.757,5.757,0,0,1-3.2294,1.0024v5.5291q5.5529.1972,5.5536,4.3549a4.0965,4.0965,0,0,1-1.0031,2.789,3.9852,3.9852,0,0,1-3.1316,1.1492q-4.8441,0-5.0643-5.43l-8.8075.66q.195,6.0688,3.9389,8.9543,3.7914,2.9129,10.4712,2.9121,6.63,0,10.6913-2.8142a8.8876,8.8876,0,0,0,4.0613-7.7073,7.82,7.82,0,0,0-6.4834-8.0246Z" transform="translate(-24.64 -17.8643)"/><path d="M494.0105,336.949v6.4085a9.1292,9.1292,0,0,1,4.6722,5.1867q1.3945,3.6215,1.3952,11.6217,0,8.22-1.8356,11.5714-1.8348,3.3531-4.2318,4.0123v6.3861a26.9292,26.9292,0,0,0,10.1524-4.7952,20.783,20.783,0,0,0,6.3862-7.608,23.8088,23.8088,0,0,0,1.981-10.1538q0-9.9819-5.5781-15.511A25.8573,25.8573,0,0,0,494.0105,336.949Z" transform="translate(-24.64 -17.8643)"/><path d="M536.35,349.2292a11.9463,11.9463,0,0,0-7.046,2.08q.2684-7.9015,5.1125-7.9016a4.2265,4.2265,0,0,1,4.1353,2.7639l8.4888-.7591a9.7252,9.7252,0,0,0-4.2318-6.3106,15.2533,15.2533,0,0,0-8.44-2.153q-7.8555,0-11.8412,4.7211-4.0137,4.7476-4.0123,12.4521,0,8.7363,4.4037,13.2854a14.6315,14.6315,0,0,0,11.0821,4.5757,14.244,14.244,0,0,0,9.4184-3.28,10.69,10.69,0,0,0,3.9145-8.6594,10.3194,10.3194,0,0,0-3.2043-7.8051A11.0071,11.0071,0,0,0,536.35,349.2292Zm-2.6912,15.9514q-4.5024,0-4.5016-7.7311a7.7036,7.7036,0,0,1,4.2569-1.4427,3.286,3.286,0,0,1,2.7639,1.2722,5.4422,5.4422,0,0,1,1.0038,3.4251Q537.1814,365.1813,533.6584,365.1806Z" transform="translate(-24.64 -17.8643)"/><path d="M577.7859,352.1175a13.9827,13.9827,0,0,0-9.15-2.961,14.3857,14.3857,0,0,0-7.8037,2.0551l.2935-6.7524h12.1586l.8067,2.08h5.75V337.634H554.7648l-1.029,17.7129,7.4137,2.6171a6.0215,6.0215,0,0,1,4.6-2.0062,5.0181,5.0181,0,0,1,3.1315,1.0276,3.967,3.967,0,0,1,1.3212,3.3021,4.1053,4.1053,0,0,1-1.3212,3.3776,5.2632,5.2632,0,0,1-3.351,1.0765,4.455,4.455,0,0,1-4.5268-2.7905l-8.8564.5634a10.39,10.39,0,0,0,4.7952,6.9244,18.0224,18.0224,0,0,0,9.9581,2.5444q6.8489,0,10.6906-3.3524a10.703,10.703,0,0,0,3.8166-8.3909A9.9254,9.9254,0,0,0,577.7859,352.1175Z" transform="translate(-24.64 -17.8643)"/><path d="M611.7734,353.4372a7.2636,7.2636,0,0,0,3.8418-2.6422,6.97,6.97,0,0,0,1.419-4.3059,8.4965,8.4965,0,0,0-3.3511-6.8q-3.3531-2.7408-10.08-2.74-6.312,0-9.958,2.5192a9.3112,9.3112,0,0,0-3.9634,7.608l9.1989.4894q.2685-3.8649,3.7677-3.8642a3.7366,3.7366,0,0,1,2.6422.9283,3.3687,3.3687,0,0,1,.9786,2.5206,3.2562,3.2562,0,0,1-1.4916,2.9121,5.76,5.76,0,0,1-3.2295,1.0024v5.5291q5.553.1972,5.553,4.3549a4.0908,4.0908,0,0,1-1.0038,2.789,3.9834,3.9834,0,0,1-3.1316,1.1492q-4.8441,0-5.0636-5.43l-8.8075.66q.195,6.0688,3.94,8.9543,3.7914,2.9129,10.4712,2.9121,6.6287,0,10.6906-2.8142a8.8875,8.8875,0,0,0,4.0612-7.7073,7.82,7.82,0,0,0-6.484-8.0246Z" transform="translate(-24.64 -17.8643)"/><rect x="599.0208" y="336.6746" width="17.4682" height="10.5438"/><path d="M669.9913,353.4372a7.2636,7.2636,0,0,0,3.8418-2.6422,6.97,6.97,0,0,0,1.4189-4.3059,8.4967,8.4967,0,0,0-3.351-6.8q-3.3531-2.7408-10.08-2.74-6.312,0-9.9581,2.5192a9.3114,9.3114,0,0,0-3.9633,7.608l9.1989.4894q.2684-3.8649,3.7677-3.8642a3.7366,3.7366,0,0,1,2.6422.9283,3.3687,3.3687,0,0,1,.9786,2.5206,3.2563,3.2563,0,0,1-1.4917,2.9121,5.76,5.76,0,0,1-3.2294,1.0024v5.5291q5.553.1972,5.5529,4.3549a4.0907,4.0907,0,0,1-1.0037,2.789,3.9835,3.9835,0,0,1-3.1316,1.1492q-4.8441,0-5.0636-5.43l-8.8075.66q.195,6.0688,3.94,8.9543,3.7914,2.9129,10.4711,2.9121,6.6288,0,10.6907-2.8142a8.8877,8.8877,0,0,0,4.0612-7.7073,7.82,7.82,0,0,0-6.484-8.0246Z" transform="translate(-24.64 -17.8643)"/><path d="M703.84,336.949h-5.1126a9.4681,9.4681,0,0,1-3.9885,3.0085,14.1681,14.1681,0,0,1-5.9444,1.2471c-.2125,0-.4166-.007-.6123-.0238v7.5353a8.4909,8.4909,0,0,0,1.2246.0741,15.0141,15.0141,0,0,0,3.6209-.3439v15.3894h-4.8455v7.8289h20.3551v-7.8289H703.84Z" transform="translate(-24.64 -17.8643)"/><path d="M735.2942,349.2292a11.9468,11.9468,0,0,0-7.0461,2.08q.2685-7.9015,5.1126-7.9016a4.2266,4.2266,0,0,1,4.1353,2.7639l8.4888-.7591a9.7252,9.7252,0,0,0-4.2318-6.3106,15.2535,15.2535,0,0,0-8.44-2.153q-7.8555,0-11.8412,4.7211-4.0137,4.7476-4.0123,12.4521,0,8.7363,4.4037,13.2854a14.6315,14.6315,0,0,0,11.0821,4.5757,14.2441,14.2441,0,0,0,9.4184-3.28,10.69,10.69,0,0,0,3.9145-8.6594,10.3194,10.3194,0,0,0-3.2043-7.8051A11.0073,11.0073,0,0,0,735.2942,349.2292Zm-2.6912,15.9514q-4.5024,0-4.5016-7.7311a7.7036,7.7036,0,0,1,4.2569-1.4427,3.286,3.286,0,0,1,2.7639,1.2722,5.4428,5.4428,0,0,1,1.0038,3.4251Q736.126,365.1813,732.603,365.1806Z" transform="translate(-24.64 -17.8643)"/><path d="M775.47,353.4372a7.263,7.263,0,0,0,3.8417-2.6422,6.9693,6.9693,0,0,0,1.419-4.3059,8.4967,8.4967,0,0,0-3.351-6.8q-3.3533-2.7408-10.08-2.74-6.3122,0-9.9581,2.5192a9.3115,9.3115,0,0,0-3.9634,7.608l9.199.4894q.2684-3.8649,3.7676-3.8642a3.7369,3.7369,0,0,1,2.6423.9283,3.3687,3.3687,0,0,1,.9786,2.5206,3.2563,3.2563,0,0,1-1.4917,2.9121,5.76,5.76,0,0,1-3.2294,1.0024v5.5291q5.5529.1972,5.5529,4.3549a4.09,4.09,0,0,1-1.0038,2.789,3.9832,3.9832,0,0,1-3.1315,1.1492q-4.8441,0-5.0636-5.43l-8.8075.66q.195,6.0688,3.94,8.9543,3.7914,2.9129,10.4711,2.9121,6.6286,0,10.6906-2.8142a8.8876,8.8876,0,0,0,4.0613-7.7073,7.82,7.82,0,0,0-6.484-8.0246Z" transform="translate(-24.64 -17.8643)"/><path class="cls-1" d="M243.1547,92.9214l-5.6117,3.1209-38.5236,21.4019a120.815,120.815,0,0,1,42.3315,15.3894L276.41,94.4676a150.2793,150.2793,0,0,0-79.1944-38.1084L238.13,88.9274Z" transform="translate(-24.64 -17.8643)"/><path class="cls-1" d="M63.9366,219.0856c0-42.131,27.93-78.3927,68-94.4549,1.4459-.587,2.92-1.1452,4.3949-1.675l-.4437,8.2316-.9019,16.9354,11.925-6.6281,33.2123-18.453,11.7961-6.5565,43.5341-24.1935L188.9984,55.3,141.9858,17.8643l-2.1617,40.3273c-1.46.3293-2.92.6729-4.3663,1.0451C71.6813,75.4277,24.64,131.4736,24.64,198.0989c0,79.3088,66.6252,143.5863,148.7973,143.5863,1.589,0,3.1638-.0286,4.7385-.0859L158.0193,320.77C104.5359,312.1233,63.9366,269.8777,63.9366,219.0856Z" transform="translate(-24.64 -17.8643)"/><path class="cls-2" d="M188.2254,123.4568l-6.0126,3.3356L166.895,135.31a87.5853,87.5853,0,0,1,15.6327-1.3886,85.2262,85.2262,0,0,1,45.8246,13.0846l7.6016-8.2889A111.2576,111.2576,0,0,0,188.2254,123.4568Z" transform="translate(-24.64 -17.8643)"/><path class="cls-2" d="M273.59,265.2824c-5.2253-33.27,4.5094-55.3588,8.99-63.4185-.0429-.2-.0859-.3865-.1431-.587H262.7958l-.5869,1.5747c.0572,1.0451.0859,2.1045.0859,3.1638,0,36.548-30.1059,66.7541-69.13,71.45-1.4174.1717-2.8489.3149-4.2948.4151V257.1653L157.59,274.516l-24.9522,13.8433,27.4718,28.4023,1.9183,1.99,2.8345,2.9347h.0143l18.9969,19.6411,4.0657,4.2089.93.9591v-27.071c1.4459-.1288,2.8774-.2863,4.2948-.4867C228.51,314.3852,258.2864,293.7562,273.59,265.2824Z" transform="translate(-24.64 -17.8643)"/><path class="cls-1" d="M193.1644,321.5287v18.8967a150.1472,150.1472,0,0,0,89.4873-44.8367l-10.751-17.0214C253.8915,301.63,225.6609,317.7494,193.1644,321.5287Z" transform="translate(-24.64 -17.8643)"/><path class="cls-2" d="M152.0783,272.6693c-28.9464-10.8084-49.3319-36.5766-49.3319-66.6539,0-21.86,10.7654-41.4439,27.7581-54.643l.1862-3.4787.7873-14.8024c-35.2452,16.0336-59.496,49.59-59.496,88.3707,0,29.7194,14.2441,56.3752,36.7627,74.4274.043.0285.0715.0715.1145.0858a109.2407,109.2407,0,0,0,45.9677,21.5021l-1.9756-2.0471-23.3059-24.079-3.8939-4.0227,4.896-2.72Z" transform="translate(-24.64 -17.8643)"/><path d="M567.0109,169.213c10.8654-12.2483,38.6436-10.197,38.6436-10.197V148.04c-14.2992-11.0867-31.4295-1.08-38.6436,4.19v-6.8666H548.5394v84.8617h18.4715Z" transform="translate(-24.64 -17.8643)"/><path d="M467.4959,232.0986h22.49a34.727,34.727,0,0,0,34.73-34.73V147.1636a34.727,34.727,0,0,0-34.73-34.73h-22.49a34.724,34.724,0,0,0-34.7156,34.73v50.2052A34.724,34.724,0,0,0,467.4959,232.0986ZM453.1229,152.79a25.6251,25.6251,0,0,1,51.25,0v38.9672a25.6251,25.6251,0,1,1-51.25,0Z" transform="translate(-24.64 -17.8643)"/><rect x="320.5564" y="145.1804" width="65.3523" height="13.6049"/><path d="M227.0455,231.3255h19.87l12.8985-34.3434h40.6136l11.51,34.3434h21.3734L292.74,113.2211H267.9741Zm68.114-50.062H265.7122l14.4659-41.4153Z" transform="translate(-24.64 -17.8643)"/><path d="M636.6437,204.5682V162.2728h20.7585V148.78H636.6437V116.604H619.2584v93.9323c0,23.3534,26.3276,25.4238,26.3276,25.4238l7.1456-14.2661C641.5738,218.3207,636.6437,212.0932,636.6437,204.5682Z" transform="translate(-24.64 -17.8643)"/><path d="M742.1853,225.6136,738.2628,212.83s-45.8674,13.786-45.8674-3.264V198.2992h56.1461V179.4954A33.5916,33.5916,0,0,0,714.95,145.9038H704.9429a33.5916,33.5916,0,0,0-33.5916,33.5916v26.9088A25.337,25.337,0,0,0,685.3134,229.12C697.7554,235.3121,717.7519,239.7685,742.1853,225.6136Zm-49.79-48.84A16.2349,16.2349,0,0,1,705.9108,160.67a25.53,25.53,0,0,1,4.0357-.3073,36.32,36.32,0,0,1,7.9989.81,16.1786,16.1786,0,0,1,12.4152,15.8662v8.2186H692.3954Z" transform="translate(-24.64 -17.8643)"/><path d="M796.6708,235.0047c13.4855,0,22.9051-2.2905,29.0036-7.2151v10.2643c0,11.31-16.32,16.7064-16.32,16.7064l6.3132,13.1848c10.608-1.1167,26.3409-7.9452,26.3409-25.6394V145.9038H825.6744s-1.0306,4.0657-2.7629,5.64c0,0-7.5873-9.1621-22.7619-9.1621s-39.3681,6.4851-39.3681,46.3114C760.7815,228.534,780.0647,235.0047,796.6708,235.0047ZM779.85,182.5663a22.2108,22.2108,0,0,1,44.4216,0V197.469a22.2108,22.2108,0,1,1-44.4216,0Z" transform="translate(-24.64 -17.8643)"/><path d="M905.3842,238.61c27.0853,0,38.6238-2.1187,38.6238-2.1187V168.9069c0-10.5937-9.6631-23.4635-44.7509-23.4635v13.8147s26.6128-1.6606,26.6128,13.1848c-30.6131-17.1931-64.9931-6.3705-64.9931,28.7315C860.8768,231.7814,878.2989,238.61,905.3842,238.61ZM925.87,193.4011v29.3471s-44.5074,10.9229-44.5074-20.8722C881.3625,174.8479,912.2117,178.7982,925.87,193.4011Z" transform="translate(-24.64 -17.8643)"/></svg>